<?xml version="1.0" standalone="no"?>
<!DOCTYPE svg PUBLIC "-//W3C//DTD SVG 20010904//EN"
 "http://www.w3.org/TR/2001/REC-SVG-20010904/DTD/svg10.dtd">
<svg version="1.0" xmlns="http://www.w3.org/2000/svg"
 width="700.000000pt" height="700.000000pt" viewBox="0 0 700.000000 700.000000"
 preserveAspectRatio="xMidYMid meet">
<metadata>
Created by potrace 1.11, written by Peter Selinger 2001-2013
</metadata>
<g transform="translate(0.000000,700.000000) scale(0.100000,-0.100000)"
fill="#000000" stroke="none">
<path d="M3278 6995 c-2 -1 -41 -5 -88 -9 -87 -7 -105 -9 -225 -27 -116 -18
-123 -19 -192 -35 -184 -42 -248 -59 -369 -99 -264 -88 -538 -216 -759 -356
-346 -217 -655 -497 -910 -824 -238 -304 -432 -668 -559 -1047 -31 -94 -79
-267 -91 -329 -3 -13 -11 -58 -20 -99 -29 -147 -36 -200 -52 -370 -15 -165 -8
-592 12 -711 2 -13 6 -46 9 -74 9 -78 23 -156 51 -285 70 -325 244 -759 410
-1023 30 -49 55 -90 55 -93 0 -3 4 -10 10 -17 5 -7 46 -64 91 -126 188 -267
410 -501 679 -716 92 -74 370 -265 386 -265 4 0 15 -6 23 -14 27 -23 260 -140
392 -196 121 -52 342 -130 407 -145 95 -21 -11 -25 -607 -25 -568 0 -641 -2
-655 -16 -20 -20 -20 -58 0 -78 14 -14 185 -16 1734 -16 l1720 0 16 24 c13 22
14 29 2 53 l-13 28 -128 3 c-162 3 -169 17 -29 62 213 69 499 196 654 290 37
22 70 40 73 40 3 0 11 5 18 10 7 6 62 43 122 83 253 168 492 376 678 592 33
39 63 72 67 75 17 13 181 236 245 335 219 336 406 779 481 1140 16 79 54 301
59 350 4 33 9 71 11 85 9 47 11 525 4 605 -13 130 -21 202 -25 227 -3 13 -8
43 -11 68 -9 67 -70 335 -94 412 -11 37 -21 70 -21 73 0 2 -16 49 -35 102
-222 615 -578 1125 -1074 1541 -66 56 -304 230 -351 257 -235 137 -500 275
-527 275 -4 0 -26 8 -48 19 -96 46 -391 136 -562 172 -54 11 -106 22 -117 25
-11 2 -38 6 -60 9 -22 3 -51 7 -65 10 -13 2 -52 7 -86 11 -33 3 -74 8 -90 10
-32 5 -540 14 -546 9z"/>
<path d="M5046 88 c-21 -29 -20 -51 2 -71 17 -15 57 -17 365 -17 331 0 348 1
367 20 11 11 17 28 15 41 -10 50 -3 49 -381 49 l-353 0 -15 -22z"/>
</g>
</svg>
